<svg width="387" height="371" viewBox="0 0 387 371" fill="none" xmlns="http://www.w3.org/2000/svg">
<circle cx="188.5" cy="205.5" r="165.5" fill="white" fill-opacity="0.18"/>
<path d="M295.195 255.041C289.338 260.602 280.484 260.309 270.63 258.651C272.733 255.801 274.369 252.778 275.206 250.007C275.468 249.139 275.804 248.307 276.127 247.503C276.995 245.336 277.818 243.29 276.928 241.218C276.232 239.595 274.606 238.331 271.813 237.233C271.616 237.156 271.4 237.122 271.188 237.134C271.058 237.144 258.171 237.966 244.449 237.966C243.642 237.966 242.986 238.621 242.986 239.434C242.986 240.244 243.642 240.903 244.449 240.903C257.037 240.903 268.924 240.213 271.043 240.087C272.826 240.822 273.901 241.592 274.239 242.381C274.649 243.33 274.101 244.687 273.411 246.406C273.081 247.225 272.709 248.159 272.407 249.151C271.557 251.961 269.706 255.149 267.357 258.064C265.629 257.736 263.874 257.387 262.106 257.031C255.901 255.786 249.487 254.496 243.355 254.187C238.924 253.965 230.271 252.403 216.127 249.272C201.579 246.05 181.224 240.377 161.54 234.893C133.437 227.059 106.892 219.661 95.8673 218.832C95.7041 218.82 95.5408 218.808 95.3776 218.798C106.227 205.396 117.097 189.345 127.881 170.787L128.978 168.898C136.609 155.777 142.287 145.662 145.816 138.291C146.481 141.111 147.307 144.295 148.237 147.841C149.761 153.656 151.202 159.147 151.754 163.014C151.901 164.059 152.064 165.101 152.228 166.146C153.888 176.778 155.606 187.775 142.38 207.122C140.944 209.221 141.397 211.02 142.032 212.158C147.174 221.42 189.126 225.226 210.26 224.221C218.359 223.834 229.818 222.419 241.945 220.922C255.119 219.296 270.83 217.358 283.444 216.77C292.972 226.32 299.765 231.294 307.421 231.99C307.461 231.993 308.046 232.043 309.019 232.104C308.009 241.302 300.643 249.865 295.195 255.041ZM253.669 267.481C248.698 267.864 242.989 265.904 236.38 263.629C228.174 260.809 219.009 257.656 208.077 257.656C206.497 257.656 204.877 257.721 203.218 257.866C196.221 258.469 187.257 259.836 177.766 261.285C156.219 264.575 131.805 268.3 114.637 266.022C93.0403 263.15 88.418 260.247 82.6779 251.031C80.9257 248.221 78.9056 242.909 78.4621 237.555C83.3061 232.8 88.1624 227.498 93.0249 221.661C93.841 221.664 94.7401 221.692 95.6486 221.76C106.384 222.57 134.025 230.271 160.758 237.722C180.479 243.218 200.874 248.904 215.495 252.138C229.803 255.306 238.61 256.889 243.207 257.121C249.123 257.418 255.433 258.685 261.533 259.91C262.731 260.151 263.923 260.392 265.106 260.621C261.506 264.355 257.25 267.203 253.669 267.481ZM80.3344 227.362C82.0589 224.496 84.9321 222.706 88.9077 222.001C85.4217 226.085 81.9418 229.891 78.4713 233.409C78.6838 231.223 79.2596 229.149 80.3344 227.362ZM147.211 125.656C147.31 126.154 147.214 126.908 146.962 127.873C146.906 126.828 146.977 126.052 147.211 125.656ZM305.961 219.831C308.03 222.916 308.97 226.067 309.111 229.177C308.637 229.14 308.16 229.106 307.685 229.062C301.391 228.49 295.472 224.413 287.469 216.628C297.03 216.412 304.184 217.185 305.961 219.831ZM50.2449 225.733C49.2595 225.43 48.6436 224.95 48.3603 224.261C47.2363 221.516 49.1517 219.25 51.1348 218.14C52.3204 217.478 53.7432 217.07 55.1875 217.07C57.2538 217.07 59.3632 217.905 60.8845 220.016C61.8822 221.404 61.4603 223.139 60.2254 225.025C56.219 226.023 52.5422 226.438 50.2449 225.733ZM175.395 67.3217C175.416 67.4701 175.435 67.7329 175.339 67.8133C174.015 68.8953 172.531 69.0963 170.926 68.41C167.539 66.9631 163.822 61.76 161.358 52.8873C169.808 58.6809 175.022 64.7217 175.395 67.3217ZM336.596 224.873C335.068 222.323 330.741 220.629 325.731 218.668C320.709 216.699 315.012 214.47 313.869 211.712C313.583 211.02 313.614 210.321 313.965 209.511C314.661 207.901 315.446 205.576 314.186 204.021C312.69 202.163 309.644 202.787 305.792 203.579C302.383 204.277 298.518 205.072 296.017 204.039C292.029 202.395 278.292 184.046 268.262 170.647C261.235 161.255 255.165 153.149 252.184 150.163C244.723 142.684 226.711 110.065 219.145 94.6757C217.315 90.9535 210.667 89.3769 202.968 87.5528C194.891 85.6392 185.732 83.4689 184.143 78.8285C183.361 76.55 184.46 73.5265 187.408 69.8413C196.874 58.01 207.116 28.9865 200.982 12.2025C198.663 5.85867 194.29 2.02515 187.983 0.800897C178.034 -1.12514 170.184 0.426835 164.641 5.4135C157.728 11.6368 154.747 23.1806 156.019 38.7991C156.246 41.5661 156.585 44.2248 157.022 46.7475C154.316 45.2048 151.458 43.7703 148.508 42.5183C147.766 42.2029 146.906 42.5523 146.592 43.3004C146.278 44.0455 146.626 44.908 147.368 45.2234C151.147 46.8279 154.642 48.6612 157.789 50.5779C160.213 61.2376 164.552 68.883 169.784 71.1151C172.395 72.2311 175.025 71.8632 177.19 70.0856C178.086 69.3498 178.477 68.2183 178.289 66.9044C177.683 62.6597 170.418 55.1163 160.364 48.757C159.732 45.7025 159.24 42.2987 158.938 38.558C157.74 23.8917 160.388 13.1857 166.593 7.59923C171.419 3.2587 178.428 1.94168 187.429 3.68531C192.658 4.69934 196.295 7.90529 198.235 13.2166C203.824 28.5043 194.284 56.5539 185.129 68.0019C181.458 72.5866 180.229 76.4418 181.375 79.7838C183.49 85.9545 193.049 88.2206 202.297 90.4125C208.394 91.8563 215.301 93.4948 216.521 95.9742C224.161 111.518 242.432 144.539 250.118 152.24C252.951 155.078 259.252 163.5 265.925 172.41C280.124 191.376 290.511 204.945 294.906 206.757C298.228 208.129 302.558 207.239 306.377 206.454C308.237 206.073 311.353 205.434 311.901 205.851C311.904 205.857 312.126 206.383 311.279 208.343C310.611 209.888 310.571 211.403 311.168 212.841C312.791 216.752 318.827 219.117 324.669 221.404C328.61 222.947 333.076 224.697 334.086 226.385C334.286 226.719 334.231 226.805 334.203 226.855C332.968 228.833 322.827 229.897 312.077 229.368C311.951 225.433 310.728 221.683 308.388 218.192C305.822 214.368 297.36 213.295 284.62 213.79C280.565 209.678 275.982 204.738 270.584 198.91C261.943 189.583 251.193 177.974 237.313 164.109C227.656 154.463 218.285 141.299 213.475 132.652C212.838 125.078 211.286 122.104 211.15 121.854C210.824 121.26 210.14 120.966 209.481 121.149C208.456 121.43 207.741 122.178 207.461 123.248C206.888 125.434 208.36 129.279 210.571 133.431C211.203 141.775 210.725 155.978 205.792 178.602C202.115 195.469 202.189 205.678 206.02 210.723C207.824 213.097 210.411 214.343 213.931 214.532C214.759 214.56 215.428 213.951 215.471 213.141C215.511 212.331 214.895 211.638 214.085 211.598C211.44 211.459 209.617 210.615 208.348 208.942C205.121 204.695 205.219 194.975 208.65 179.233C212.675 160.761 213.805 147.764 213.74 138.866C214.528 140.122 215.332 141.355 216.117 142.524C221.827 151.035 229.159 160.105 235.25 166.193C249.089 180.015 259.821 191.602 268.444 200.911C273.044 205.879 277.076 210.232 280.709 213.985C269.977 214.612 256.677 216.146 241.588 218.007C229.516 219.497 218.11 220.904 210.122 221.287C185.283 222.48 148.329 217.472 144.587 210.729C144.338 210.281 144.166 209.697 144.791 208.782C158.676 188.473 156.865 176.892 155.119 165.692C154.956 164.659 154.796 163.63 154.648 162.6C154.075 158.563 152.613 152.992 151.067 147.09C150.115 143.467 148.739 138.226 147.843 133.799C149.906 128.85 150.559 125.625 149.703 123.99C149.262 123.155 148.483 122.654 147.507 122.586C146.552 122.509 145.675 122.874 145.077 123.597C143.759 125.192 143.845 128.547 144.8 133.574C140.399 143.433 131.186 159.28 126.453 167.417L125.353 169.309C114.153 188.585 102.87 205.121 91.6299 218.755C85.1168 219.058 80.4853 221.432 77.8308 225.844C76.0078 228.874 75.3672 232.593 75.4812 236.371C74.2094 237.598 72.9437 238.785 71.678 239.935C71.0868 240.473 70.6526 240.869 70.3847 241.135C64.9248 246.545 48.3079 248.258 44.3231 245.707C43.8119 245.379 43.8674 245.228 43.9413 245.015C44.591 243.194 48.2987 240.13 51.8863 237.168C55.5971 234.105 59.5603 230.831 62.0146 227.575C69.122 225.668 76.5897 222.258 79.9125 220.035C83.7957 217.435 90.512 202.858 99.5749 182.547C104.2 172.181 108.57 162.393 110.864 158.937C113.494 154.976 118.757 144.153 124.325 132.689C131.414 118.104 139.451 101.567 142.891 97.5354C145.114 94.9323 148.652 91.9676 152.942 92.6632C157.946 93.47 162.67 98.9761 166.6 108.585C169.981 116.848 174.046 121.037 178.705 120.827C184.377 120.657 189.942 113.782 193.967 101.966C194.229 101.199 193.822 100.364 193.055 100.101C192.301 99.8417 191.463 100.247 191.198 101.017C187.697 111.296 182.875 117.763 178.619 117.893C175.305 118.005 172.133 114.384 169.306 107.469C163.825 94.0729 157.635 90.4465 153.404 89.7633C148.957 89.0399 144.557 91.0741 140.67 95.6249C136.984 99.9407 129.212 115.936 121.695 131.403C116.17 142.771 110.95 153.511 108.428 157.307C105.999 160.968 101.786 170.409 96.905 181.344C90.5182 195.658 81.7725 215.262 78.2896 217.59C75.3611 219.553 69.7009 222.134 64.044 223.936C64.6937 222.004 64.5583 220.109 63.2557 218.297C59.7882 213.481 53.8202 213.277 49.7122 215.574C45.7797 217.772 44.1507 221.711 45.6565 225.377C46.0876 226.431 47.0854 227.835 49.3919 228.543C51.4275 229.167 54.1589 229.112 57.1706 228.633C55.0427 230.759 52.419 232.927 50.0294 234.899C45.7797 238.408 42.1058 241.441 41.1882 244.028C40.6154 245.636 41.1974 247.191 42.7526 248.183C48.1817 251.658 66.2428 249.368 72.4418 243.228C72.6881 242.98 73.0915 242.616 73.6428 242.115C74.3664 241.453 75.0931 240.782 75.8229 240.096C76.5558 244.965 78.3265 249.584 80.1958 252.589C86.7951 263.184 92.8432 266.087 114.252 268.931C131.829 271.277 156.471 267.509 178.206 264.188C187.648 262.748 196.566 261.387 203.467 260.791C215.967 259.718 226.307 263.27 235.432 266.408C241.723 268.572 247.235 270.467 252.372 270.467C252.883 270.467 253.388 270.449 253.893 270.409C258.728 270.038 264.234 266.148 268.521 261.267C279.776 263.289 290.055 263.963 297.206 257.174C306.204 248.629 311.162 240.133 311.954 232.262C313.663 232.336 315.726 232.398 317.934 232.398C325.469 232.398 334.634 231.69 336.679 228.413C337.07 227.792 337.572 226.506 336.596 224.873Z" fill="#433030"/>
<path d="M28.562 318.33V329.182C28.562 331.252 28.5864 333.067 28.6351 334.626C28.6838 336.16 28.7569 337.488 28.8543 338.608C28.9517 339.728 29.0613 340.666 29.1831 341.421C29.3293 342.176 29.4754 342.81 29.6216 343.321V343.467H20.8528V343.321C20.999 342.81 21.1329 342.176 21.2547 341.421C21.4009 340.666 21.5105 339.728 21.5835 338.608C21.681 337.488 21.7541 336.16 21.8028 334.626C21.8758 333.067 21.9124 331.252 21.9124 329.182V319.061L5.58057 296.847C5.02035 296.092 4.46012 295.398 3.8999 294.764C3.36403 294.131 2.85252 293.583 2.36536 293.12C1.87821 292.633 1.43977 292.231 1.05005 291.914C0.660329 291.598 0.355859 291.366 0.13664 291.22V291.074H11.2072C11.2072 291.634 11.4386 292.56 11.9014 293.851C12.3885 295.117 13.2532 296.615 14.4955 298.345L26.4794 314.75L38.2076 297.614C38.6217 297.005 39.0358 296.384 39.4499 295.751C39.864 295.117 40.2415 294.508 40.5825 293.924C40.9235 293.339 41.1915 292.803 41.3863 292.316C41.6055 291.829 41.7151 291.415 41.7151 291.074H48.8398V291.22C48.3039 291.683 47.5853 292.377 46.6841 293.303C45.7829 294.204 44.8086 295.41 43.7612 296.92L28.562 318.33ZM48.2552 323.701C48.2552 320.827 48.791 318.16 49.8628 315.7C50.9589 313.24 52.4447 311.108 54.3202 309.306C56.1958 307.479 58.4123 306.054 60.9699 305.031C63.5274 304.008 66.2677 303.496 69.1906 303.496C72.0648 303.496 74.7685 303.984 77.3017 304.958C79.8592 305.908 82.0758 307.272 83.9513 309.05C85.8512 310.828 87.3492 312.984 88.4453 315.517C89.5414 318.05 90.0894 320.888 90.0894 324.03C90.0894 326.636 89.6266 329.157 88.7011 331.593C87.7755 334.004 86.4236 336.148 84.6455 338.023C82.8674 339.875 80.6752 341.36 78.0689 342.481C75.4627 343.577 72.4789 344.125 69.1175 344.125C66.2677 344.125 63.5761 343.65 61.0429 342.7C58.5097 341.75 56.2932 340.398 54.3933 338.645C52.4934 336.866 50.9954 334.723 49.8993 332.214C48.8032 329.681 48.2552 326.843 48.2552 323.701ZM70.0309 341.531C71.8821 341.531 73.5871 341.166 75.146 340.435C76.7049 339.704 78.0446 338.657 79.165 337.293C80.3098 335.929 81.1867 334.272 81.7957 332.324C82.429 330.351 82.7456 328.134 82.7456 325.674C82.7456 322.873 82.4411 320.279 81.8322 317.892C81.2476 315.505 80.3464 313.447 79.1285 311.717C77.935 309.963 76.437 308.599 74.6345 307.625C72.832 306.626 70.7251 306.127 68.3137 306.127C66.4625 306.127 64.7575 306.48 63.1986 307.187C61.6397 307.893 60.2879 308.916 59.143 310.256C58.0226 311.595 57.1457 313.24 56.5124 315.188C55.8791 317.137 55.5625 319.353 55.5625 321.838C55.5625 324.615 55.8669 327.209 56.4759 329.62C57.1092 332.007 58.0226 334.09 59.2161 335.868C60.434 337.622 61.9442 339.01 63.7466 340.033C65.5491 341.032 67.6439 341.531 70.0309 341.531ZM133.458 339.046C133.458 339.363 133.422 339.631 133.349 339.85C133.3 340.069 133.166 340.252 132.947 340.398C131.217 341.616 129.196 342.59 126.882 343.321C124.592 344.028 121.901 344.381 118.807 344.381C115.324 344.381 112.145 343.881 109.271 342.883C106.421 341.884 103.973 340.496 101.927 338.718C99.8812 336.915 98.2858 334.759 97.141 332.251C96.0205 329.742 95.4603 326.965 95.4603 323.92C95.4603 321.314 95.9718 318.781 96.9948 316.321C98.0422 313.861 99.5402 311.681 101.489 309.781C103.437 307.881 105.8 306.358 108.577 305.214C111.378 304.069 114.532 303.496 118.04 303.496C119.867 303.496 121.596 303.606 123.228 303.825C124.86 304.02 126.431 304.337 127.941 304.775L130.681 311.352L130.316 311.608C128.855 309.927 127.089 308.599 125.018 307.625C122.948 306.626 120.573 306.127 117.894 306.127C115.702 306.127 113.68 306.48 111.829 307.187C110.002 307.893 108.406 308.928 107.042 310.292C105.703 311.632 104.655 313.288 103.9 315.261C103.145 317.234 102.768 319.475 102.768 321.984C102.768 324.809 103.121 327.428 103.827 329.839C104.534 332.251 105.593 334.345 107.006 336.124C108.419 337.877 110.16 339.253 112.231 340.252C114.325 341.251 116.761 341.75 119.538 341.75C121.925 341.75 123.776 341.446 125.091 340.837C126.431 340.228 127.101 339.534 127.101 338.754V336.818C127.101 335.551 127.089 334.455 127.064 333.529C127.04 332.604 127.003 331.812 126.955 331.155C126.906 330.473 126.833 329.888 126.736 329.401C126.662 328.914 126.565 328.463 126.443 328.049V327.903H134.225V328.049C134.104 328.414 133.994 328.853 133.897 329.364C133.799 329.876 133.714 330.485 133.641 331.191C133.592 331.897 133.543 332.726 133.495 333.676C133.47 334.626 133.458 335.722 133.458 336.964V339.046ZM166.049 331.118C165.391 331.118 164.563 331.118 163.564 331.118C162.59 331.118 161.518 331.118 160.349 331.118C159.18 331.118 157.974 331.118 156.732 331.118C155.49 331.118 154.308 331.13 153.188 331.155C152.067 331.155 151.044 331.167 150.119 331.191C149.193 331.191 148.475 331.191 147.963 331.191L146.611 334.041C146.027 335.21 145.527 336.233 145.113 337.11C144.699 337.963 144.358 338.718 144.09 339.375C143.822 340.033 143.628 340.605 143.506 341.092C143.384 341.555 143.323 341.994 143.323 342.408C143.323 342.676 143.335 342.883 143.36 343.029C143.384 343.151 143.421 343.248 143.469 343.321V343.467H137.039V343.321C137.209 343.151 137.477 342.785 137.843 342.225C138.208 341.641 138.622 340.934 139.085 340.106C139.572 339.278 140.084 338.34 140.619 337.293C141.18 336.245 141.728 335.161 142.264 334.041L157.17 303.277H159.911L174.525 334.041C175.085 335.21 175.646 336.331 176.206 337.402C176.79 338.474 177.326 339.436 177.814 340.289C178.301 341.117 178.727 341.811 179.092 342.371C179.458 342.907 179.701 343.224 179.823 343.321V343.467H170.47C170.518 343.272 170.543 343.102 170.543 342.956C170.543 342.785 170.543 342.603 170.543 342.408C170.543 341.872 170.421 341.226 170.177 340.471C169.958 339.716 169.678 338.949 169.337 338.17C169.02 337.366 168.679 336.598 168.314 335.868C167.973 335.137 167.693 334.528 167.474 334.041L166.049 331.118ZM149.388 328.268H151.617C152.64 328.268 153.724 328.268 154.869 328.268C156.038 328.244 157.207 328.232 158.376 328.232C159.545 328.232 160.678 328.232 161.774 328.232C162.87 328.207 163.857 328.195 164.733 328.195L157.17 312.046L149.388 328.268ZM188.007 291.074V291.22C187.958 291.342 187.922 291.525 187.898 291.768C187.873 292.012 187.861 292.231 187.861 292.426C187.861 293.181 187.958 294.021 188.153 294.947C188.373 295.848 188.774 296.981 189.359 298.345L205.545 334.845L221.182 298.637C221.548 297.736 221.937 296.749 222.351 295.678C222.766 294.606 222.973 293.522 222.973 292.426C222.973 292.134 222.948 291.89 222.9 291.695C222.851 291.476 222.802 291.318 222.753 291.22V291.074H230.243V291.22C229.781 291.683 229.22 292.511 228.563 293.705C227.905 294.898 227.186 296.372 226.407 298.126L205.472 344.6H202.549L182.709 299.916C182.247 298.868 181.759 297.858 181.248 296.883C180.761 295.909 180.298 295.032 179.86 294.253C179.421 293.449 179.031 292.779 178.69 292.243C178.349 291.707 178.118 291.366 177.996 291.22V291.074H188.007ZM233.934 319.207C233.934 317.015 233.909 315.115 233.86 313.507C233.812 311.875 233.739 310.475 233.641 309.306C233.568 308.112 233.459 307.114 233.312 306.31C233.191 305.506 233.044 304.848 232.874 304.337V304.191H241.35V304.337C241.18 304.848 241.022 305.506 240.875 306.31C240.754 307.114 240.644 308.112 240.547 309.306C240.474 310.475 240.413 311.875 240.364 313.507C240.315 315.115 240.291 317.015 240.291 319.207V328.414C240.291 330.607 240.315 332.519 240.364 334.151C240.413 335.783 240.474 337.195 240.547 338.389C240.644 339.558 240.754 340.544 240.875 341.348C241.022 342.152 241.18 342.81 241.35 343.321V343.467H232.874V343.321C233.044 342.81 233.191 342.152 233.312 341.348C233.459 340.544 233.568 339.558 233.641 338.389C233.739 337.195 233.812 335.783 233.86 334.151C233.909 332.519 233.934 330.607 233.934 328.414V319.207ZM269.301 311.827H268.57C268.424 311.413 268.18 310.889 267.839 310.256C267.523 309.622 267.084 309.001 266.524 308.392C265.988 307.783 265.318 307.272 264.515 306.858C263.711 306.419 262.749 306.2 261.628 306.2C260.776 306.2 260.008 306.346 259.326 306.639C258.669 306.907 258.108 307.284 257.646 307.771C257.183 308.258 256.83 308.843 256.586 309.525C256.343 310.183 256.221 310.901 256.221 311.681C256.221 312.947 256.598 314.153 257.353 315.298C258.133 316.443 259.095 317.587 260.24 318.732C261.385 319.853 262.627 320.985 263.967 322.13C265.306 323.275 266.548 324.468 267.693 325.711C268.838 326.953 269.788 328.268 270.543 329.657C271.323 331.045 271.712 332.531 271.712 334.114C271.712 335.283 271.493 336.489 271.055 337.731C270.641 338.973 269.958 340.094 269.009 341.092C268.059 342.091 266.841 342.907 265.355 343.54C263.869 344.198 262.067 344.527 259.948 344.527C258.778 344.527 257.658 344.429 256.586 344.235C255.539 344.04 254.564 343.796 253.663 343.504C252.786 343.236 251.995 342.944 251.288 342.627C250.606 342.286 250.034 341.969 249.571 341.677L250.229 334.772H250.996C251.24 335.624 251.593 336.477 252.056 337.329C252.543 338.182 253.127 338.961 253.809 339.668C254.516 340.35 255.332 340.91 256.257 341.348C257.207 341.762 258.291 341.969 259.509 341.969C260.362 341.969 261.165 341.835 261.92 341.567C262.676 341.275 263.321 340.873 263.857 340.362C264.417 339.85 264.856 339.229 265.172 338.498C265.489 337.743 265.647 336.903 265.647 335.977C265.647 334.881 265.428 333.87 264.99 332.945C264.551 331.995 263.967 331.094 263.236 330.241C262.505 329.364 261.677 328.524 260.751 327.72C259.85 326.916 258.912 326.1 257.938 325.272C256.964 324.444 256.014 323.604 255.088 322.751C254.187 321.874 253.371 320.937 252.64 319.938C251.909 318.939 251.325 317.88 250.886 316.759C250.448 315.614 250.229 314.36 250.229 312.996C250.229 311.559 250.533 310.268 251.142 309.123C251.751 307.978 252.555 307.016 253.554 306.237C254.552 305.433 255.697 304.824 256.988 304.41C258.279 303.971 259.619 303.752 261.007 303.752C262.03 303.752 262.98 303.825 263.857 303.971C264.758 304.118 265.562 304.3 266.268 304.519C266.999 304.714 267.632 304.921 268.168 305.141C268.704 305.335 269.143 305.494 269.484 305.616L269.301 311.827ZM280.7 319.207C280.7 317.015 280.676 315.115 280.627 313.507C280.578 311.875 280.505 310.475 280.408 309.306C280.335 308.112 280.225 307.114 280.079 306.31C279.957 305.506 279.811 304.848 279.641 304.337V304.191H288.117V304.337C287.947 304.848 287.788 305.506 287.642 306.31C287.52 307.114 287.411 308.112 287.313 309.306C287.24 310.475 287.179 311.875 287.131 313.507C287.082 315.115 287.058 317.015 287.058 319.207V328.414C287.058 330.607 287.082 332.519 287.131 334.151C287.179 335.783 287.24 337.195 287.313 338.389C287.411 339.558 287.52 340.544 287.642 341.348C287.788 342.152 287.947 342.81 288.117 343.321V343.467H279.641V343.321C279.811 342.81 279.957 342.152 280.079 341.348C280.225 340.544 280.335 339.558 280.408 338.389C280.505 337.195 280.578 335.783 280.627 334.151C280.676 332.519 280.7 330.607 280.7 328.414V319.207ZM296.192 323.701C296.192 320.827 296.728 318.16 297.799 315.7C298.895 313.24 300.381 311.108 302.257 309.306C304.132 307.479 306.349 306.054 308.906 305.031C311.464 304.008 314.204 303.496 317.127 303.496C320.001 303.496 322.705 303.984 325.238 304.958C327.796 305.908 330.012 307.272 331.888 309.05C333.788 310.828 335.286 312.984 336.382 315.517C337.478 318.05 338.026 320.888 338.026 324.03C338.026 326.636 337.563 329.157 336.638 331.593C335.712 334.004 334.36 336.148 332.582 338.023C330.804 339.875 328.612 341.36 326.005 342.481C323.399 343.577 320.415 344.125 317.054 344.125C314.204 344.125 311.513 343.65 308.979 342.7C306.446 341.75 304.23 340.398 302.33 338.645C300.43 336.866 298.932 334.723 297.836 332.214C296.74 329.681 296.192 326.843 296.192 323.701ZM317.967 341.531C319.819 341.531 321.524 341.166 323.083 340.435C324.641 339.704 325.981 338.657 327.102 337.293C328.246 335.929 329.123 334.272 329.732 332.324C330.365 330.351 330.682 328.134 330.682 325.674C330.682 322.873 330.378 320.279 329.769 317.892C329.184 315.505 328.283 313.447 327.065 311.717C325.871 309.963 324.373 308.599 322.571 307.625C320.769 306.626 318.662 306.127 316.25 306.127C314.399 306.127 312.694 306.48 311.135 307.187C309.576 307.893 308.224 308.916 307.08 310.256C305.959 311.595 305.082 313.24 304.449 315.188C303.816 317.137 303.499 319.353 303.499 321.838C303.499 324.615 303.803 327.209 304.412 329.62C305.046 332.007 305.959 334.09 307.153 335.868C308.37 337.622 309.881 339.01 311.683 340.033C313.486 341.032 315.58 341.531 317.967 341.531ZM380.591 343.979H379.166L350.12 315.407V328.414C350.12 330.607 350.132 332.519 350.156 334.151C350.18 335.783 350.217 337.195 350.266 338.389C350.339 339.558 350.424 340.544 350.521 341.348C350.643 342.152 350.789 342.81 350.96 343.321V343.467H345.479V343.321C345.65 342.81 345.796 342.152 345.918 341.348C346.04 340.544 346.137 339.558 346.21 338.389C346.283 337.195 346.332 335.783 346.356 334.151C346.381 332.519 346.393 330.607 346.393 328.414V319.207C346.393 317.015 346.381 315.115 346.356 313.507C346.332 311.875 346.283 310.475 346.21 309.306C346.137 308.112 346.04 307.114 345.918 306.31C345.796 305.506 345.65 304.848 345.479 304.337V304.191H347.745L376.828 332.908V319.207C376.828 317.015 376.816 315.115 376.791 313.507C376.767 311.875 376.718 310.475 376.645 309.306C376.596 308.112 376.523 307.114 376.426 306.31C376.328 305.506 376.194 304.848 376.024 304.337V304.191H381.468V304.337C381.297 304.848 381.151 305.506 381.029 306.31C380.932 307.114 380.847 308.112 380.774 309.306C380.701 310.475 380.652 311.875 380.627 313.507C380.603 315.115 380.591 317.015 380.591 319.207V343.979Z" fill="#433030"/>
</svg>
