<svg width="1512" height="982" viewBox="0 0 1512 982" fill="none" xmlns="http://www.w3.org/2000/svg">
<path d="M713.5 255.5C627.5 35.5 507.5 -51 507.5 -51L-180.5 -83.5L188.5 1136.5C613.333 1133.17 1629.2 1016.7 1558 999.5C1469 978 1028 968.5 857 802C686 635.5 809.808 501.868 713.5 255.5Z" fill="#C8B1CC" fill-opacity="0.62"/>
<path d="M467 181C307.707 30.9471 16.5 -90 -62 -130L-314.5 59.5L247.5 1172.5C672.333 1169.17 1504.2 1158.2 1433 1141C1344 1119.5 1087 1004.5 916 838C745 671.5 682.5 384 467 181Z" fill="#C8B1CC" fill-opacity="0.62"/>
<path d="M509.5 452C340 345 32.5 326.5 -106 150L-257 -72L-230 1109.5C194.833 1106.17 1649.7 1107.7 1578.5 1090.5L1577.71 1090.31C1486.55 1068.29 984.5 947.013 814 781C643 614.5 599.17 508.606 509.5 452Z" fill="#C8B1CC"/>
</svg>
