<svg width="510" height="510" viewBox="0 0 510 510" fill="none" xmlns="http://www.w3.org/2000/svg">
<circle cx="255" cy="255" r="255" fill="#FDF0FF"/>
<path d="M361.195 314.041C355.338 319.602 346.484 319.309 336.63 317.651C338.733 314.801 340.369 311.778 341.206 309.007C341.468 308.139 341.804 307.307 342.127 306.503C342.995 304.336 343.818 302.29 342.928 300.218C342.232 298.595 340.606 297.331 337.813 296.233C337.616 296.156 337.4 296.122 337.188 296.134C337.058 296.144 324.171 296.966 310.449 296.966C309.642 296.966 308.986 297.621 308.986 298.434C308.986 299.244 309.642 299.903 310.449 299.903C323.037 299.903 334.924 299.213 337.043 299.087C338.826 299.822 339.901 300.592 340.239 301.381C340.649 302.33 340.101 303.687 339.411 305.406C339.081 306.225 338.709 307.159 338.407 308.151C337.557 310.961 335.706 314.149 333.357 317.064C331.629 316.736 329.874 316.387 328.106 316.031C321.901 314.786 315.487 313.496 309.355 313.187C304.924 312.965 296.271 311.403 282.127 308.272C267.579 305.05 247.224 299.377 227.54 293.893C199.437 286.059 172.892 278.661 161.867 277.832C161.704 277.82 161.541 277.808 161.378 277.798C172.227 264.396 183.097 248.345 193.881 229.787L194.978 227.898C202.609 214.777 208.287 204.662 211.816 197.291C212.481 200.111 213.307 203.295 214.237 206.841C215.761 212.656 217.202 218.147 217.754 222.014C217.901 223.059 218.064 224.101 218.228 225.146C219.888 235.778 221.606 246.775 208.38 266.122C206.944 268.221 207.397 270.02 208.032 271.158C213.174 280.42 255.126 284.226 276.26 283.221C284.359 282.834 295.818 281.419 307.945 279.922C321.119 278.296 336.83 276.358 349.444 275.77C358.972 285.32 365.765 290.294 373.421 290.99C373.461 290.993 374.046 291.043 375.019 291.104C374.009 300.302 366.643 308.865 361.195 314.041ZM319.669 326.481C314.698 326.864 308.989 324.904 302.38 322.629C294.174 319.809 285.009 316.656 274.077 316.656C272.497 316.656 270.877 316.721 269.218 316.866C262.221 317.469 253.257 318.836 243.766 320.285C222.219 323.575 197.805 327.3 180.637 325.022C159.04 322.15 154.418 319.247 148.678 310.031C146.926 307.221 144.906 301.909 144.462 296.555C149.306 291.8 154.162 286.498 159.025 280.661C159.841 280.664 160.74 280.692 161.649 280.76C172.384 281.57 200.025 289.271 226.758 296.722C246.479 302.218 266.874 307.904 281.495 311.138C295.803 314.306 304.61 315.889 309.207 316.121C315.123 316.418 321.433 317.685 327.533 318.91C328.731 319.151 329.923 319.392 331.106 319.621C327.506 323.355 323.25 326.203 319.669 326.481ZM146.334 286.362C148.059 283.496 150.932 281.706 154.908 281.001C151.422 285.085 147.942 288.891 144.471 292.409C144.684 290.223 145.26 288.149 146.334 286.362ZM213.211 184.656C213.31 185.154 213.214 185.908 212.962 186.873C212.906 185.828 212.977 185.052 213.211 184.656ZM371.961 278.831C374.03 281.916 374.97 285.067 375.111 288.177C374.637 288.14 374.16 288.106 373.685 288.062C367.391 287.49 361.472 283.413 353.469 275.628C363.03 275.412 370.184 276.185 371.961 278.831ZM116.245 284.733C115.26 284.43 114.644 283.95 114.36 283.261C113.236 280.516 115.152 278.25 117.135 277.14C118.32 276.478 119.743 276.07 121.187 276.07C123.254 276.07 125.363 276.905 126.884 279.016C127.882 280.404 127.46 282.139 126.225 284.025C122.219 285.023 118.542 285.438 116.245 284.733ZM241.395 126.322C241.416 126.47 241.435 126.733 241.339 126.813C240.015 127.895 238.531 128.096 236.926 127.41C233.539 125.963 229.822 120.76 227.358 111.887C235.808 117.681 241.022 123.722 241.395 126.322ZM402.596 283.873C401.068 281.323 396.741 279.629 391.731 277.668C386.709 275.699 381.012 273.47 379.869 270.712C379.583 270.02 379.614 269.321 379.965 268.511C380.661 266.901 381.446 264.576 380.186 263.021C378.69 261.163 375.644 261.787 371.792 262.579C368.383 263.277 364.518 264.072 362.017 263.039C358.029 261.395 344.292 243.046 334.262 229.647C327.235 220.255 321.165 212.149 318.184 209.163C310.723 201.684 292.711 169.065 285.145 153.676C283.315 149.954 276.667 148.377 268.968 146.553C260.891 144.639 251.732 142.469 250.143 137.828C249.361 135.55 250.46 132.526 253.408 128.841C262.874 117.01 273.116 87.9865 266.982 71.2025C264.663 64.8587 260.29 61.0252 253.983 59.8009C244.034 57.8749 236.184 59.4268 230.641 64.4135C223.728 70.6368 220.747 82.1806 222.019 97.7991C222.246 100.566 222.585 103.225 223.022 105.747C220.316 104.205 217.458 102.77 214.508 101.518C213.766 101.203 212.906 101.552 212.592 102.3C212.278 103.045 212.626 103.908 213.368 104.223C217.147 105.828 220.642 107.661 223.789 109.578C226.213 120.238 230.552 127.883 235.784 130.115C238.395 131.231 241.025 130.863 243.19 129.086C244.086 128.35 244.477 127.218 244.289 125.904C243.683 121.66 236.418 114.116 226.364 107.757C225.732 104.703 225.24 101.299 224.938 97.558C223.74 82.8917 226.388 72.1857 232.593 66.5992C237.419 62.2587 244.428 60.9417 253.429 62.6853C258.658 63.6993 262.295 66.9053 264.235 72.2166C269.824 87.5043 260.284 115.554 251.129 127.002C247.458 131.587 246.229 135.442 247.375 138.784C249.49 144.954 259.049 147.221 268.297 149.413C274.394 150.856 281.301 152.495 282.521 154.974C290.161 170.518 308.432 203.539 316.118 211.24C318.951 214.078 325.252 222.5 331.925 231.41C346.124 250.376 356.511 263.945 360.906 265.757C364.228 267.129 368.558 266.239 372.377 265.454C374.237 265.073 377.353 264.434 377.901 264.851C377.904 264.857 378.126 265.383 377.279 267.343C376.611 268.888 376.571 270.403 377.168 271.841C378.791 275.752 384.827 278.117 390.669 280.404C394.61 281.947 399.076 283.697 400.086 285.385C400.286 285.719 400.231 285.805 400.203 285.855C398.968 287.833 388.827 288.897 378.077 288.368C377.951 284.433 376.728 280.683 374.388 277.192C371.822 273.368 363.36 272.295 350.62 272.79C346.565 268.678 341.982 263.738 336.584 257.91C327.943 248.583 317.193 236.974 303.313 223.109C293.656 213.463 284.285 200.299 279.475 191.652C278.838 184.078 277.286 181.104 277.15 180.854C276.824 180.26 276.14 179.966 275.481 180.149C274.456 180.43 273.741 181.178 273.461 182.248C272.888 184.434 274.36 188.279 276.571 192.431C277.203 200.775 276.725 214.978 271.792 237.602C268.115 254.469 268.189 264.678 272.02 269.723C273.824 272.097 276.411 273.343 279.931 273.532C280.759 273.56 281.428 272.951 281.471 272.141C281.511 271.331 280.895 270.638 280.085 270.598C277.44 270.459 275.617 269.615 274.348 267.942C271.121 263.695 271.219 253.975 274.65 238.233C278.675 219.761 279.805 206.764 279.74 197.866C280.528 199.122 281.332 200.355 282.117 201.524C287.827 210.035 295.159 219.105 301.25 225.193C315.089 239.015 325.821 250.602 334.444 259.911C339.044 264.879 343.076 269.232 346.709 272.985C335.977 273.612 322.677 275.146 307.588 277.007C295.516 278.497 284.11 279.904 276.122 280.287C251.283 281.48 214.329 276.472 210.587 269.729C210.338 269.281 210.166 268.697 210.791 267.782C224.676 247.473 222.865 235.892 221.119 224.692C220.956 223.659 220.796 222.63 220.648 221.6C220.075 217.563 218.613 211.992 217.067 206.09C216.115 202.467 214.739 197.226 213.843 192.799C215.906 187.85 216.559 184.625 215.703 182.99C215.262 182.155 214.483 181.654 213.507 181.586C212.552 181.509 211.675 181.874 211.077 182.597C209.759 184.192 209.845 187.547 210.8 192.574C206.399 202.433 197.186 218.28 192.453 226.417L191.353 228.309C180.153 247.585 168.87 264.121 157.63 277.755C151.117 278.058 146.485 280.432 143.831 284.844C142.008 287.874 141.367 291.593 141.481 295.371C140.209 296.598 138.944 297.785 137.678 298.935C137.087 299.473 136.653 299.869 136.385 300.135C130.925 305.545 114.308 307.258 110.323 304.707C109.812 304.379 109.867 304.228 109.941 304.015C110.591 302.194 114.299 299.13 117.886 296.168C121.597 293.105 125.56 289.831 128.015 286.575C135.122 284.668 142.59 281.258 145.912 279.035C149.796 276.435 156.512 261.858 165.575 241.547C170.2 231.181 174.57 221.393 176.864 217.937C179.494 213.976 184.757 203.153 190.325 191.689C197.414 177.104 205.451 160.567 208.891 156.535C211.114 153.932 214.652 150.968 218.942 151.663C223.946 152.47 228.67 157.976 232.6 167.585C235.981 175.848 240.046 180.037 244.705 179.827C250.377 179.657 255.942 172.782 259.967 160.966C260.229 160.199 259.822 159.364 259.055 159.101C258.301 158.842 257.463 159.247 257.198 160.017C253.697 170.296 248.875 176.763 244.619 176.893C241.305 177.005 238.133 173.384 235.306 166.469C229.825 153.073 223.635 149.447 219.404 148.763C214.957 148.04 210.557 150.074 206.67 154.625C202.984 158.941 195.212 174.936 187.695 190.403C182.17 201.771 176.95 212.511 174.428 216.307C171.999 219.968 167.786 229.409 162.905 240.344C156.518 254.658 147.773 274.262 144.29 276.59C141.361 278.553 135.701 281.134 130.044 282.936C130.694 281.004 130.558 279.109 129.256 277.297C125.788 272.481 119.82 272.277 115.712 274.574C111.78 276.772 110.151 280.711 111.657 284.377C112.088 285.431 113.085 286.835 115.392 287.543C117.427 288.167 120.159 288.112 123.171 287.633C121.043 289.759 118.419 291.927 116.029 293.899C111.78 297.408 108.106 300.441 107.188 303.028C106.615 304.636 107.197 306.191 108.753 307.183C114.182 310.658 132.243 308.368 138.442 302.228C138.688 301.98 139.092 301.616 139.643 301.115C140.366 300.453 141.093 299.782 141.823 299.096C142.556 303.965 144.327 308.584 146.196 311.589C152.795 322.184 158.843 325.087 180.252 327.931C197.829 330.277 222.471 326.509 244.206 323.188C253.648 321.748 262.566 320.387 269.467 319.791C281.967 318.718 292.307 322.27 301.432 325.408C307.723 327.572 313.235 329.467 318.372 329.467C318.883 329.467 319.388 329.449 319.893 329.409C324.728 329.038 330.234 325.148 334.521 320.267C345.776 322.289 356.055 322.963 363.206 316.174C372.204 307.629 377.162 299.133 377.954 291.262C379.663 291.336 381.726 291.398 383.934 291.398C391.469 291.398 400.634 290.69 402.679 287.413C403.07 286.792 403.572 285.506 402.596 283.873Z" fill="#433030"/>
<path d="M94.562 377.33V388.182C94.562 390.252 94.5864 392.067 94.6351 393.626C94.6838 395.16 94.7569 396.488 94.8543 397.608C94.9517 398.728 95.0613 399.666 95.1831 400.421C95.3293 401.176 95.4754 401.81 95.6216 402.321V402.467H86.8528V402.321C86.999 401.81 87.1329 401.176 87.2547 400.421C87.4009 399.666 87.5105 398.728 87.5835 397.608C87.681 396.488 87.7541 395.16 87.8028 393.626C87.8758 392.067 87.9124 390.252 87.9124 388.182V378.061L71.5806 355.847C71.0203 355.092 70.4601 354.398 69.8999 353.764C69.364 353.131 68.8525 352.583 68.3654 352.12C67.8782 351.633 67.4398 351.231 67.0501 350.914C66.6603 350.598 66.3559 350.366 66.1366 350.22V350.074H77.2072C77.2072 350.634 77.4386 351.56 77.9014 352.851C78.3885 354.117 79.2532 355.615 80.4955 357.345L92.4794 373.75L104.208 356.614C104.622 356.005 105.036 355.384 105.45 354.751C105.864 354.117 106.242 353.508 106.583 352.924C106.924 352.339 107.191 351.803 107.386 351.316C107.606 350.829 107.715 350.415 107.715 350.074H114.84V350.22C114.304 350.683 113.585 351.377 112.684 352.303C111.783 353.204 110.809 354.41 109.761 355.92L94.562 377.33ZM114.255 382.701C114.255 379.827 114.791 377.16 115.863 374.7C116.959 372.24 118.445 370.108 120.32 368.306C122.196 366.479 124.412 365.054 126.97 364.031C129.527 363.008 132.268 362.496 135.191 362.496C138.065 362.496 140.768 362.984 143.302 363.958C145.859 364.908 148.076 366.272 149.951 368.05C151.851 369.828 153.349 371.984 154.445 374.517C155.541 377.05 156.089 379.888 156.089 383.03C156.089 385.636 155.627 388.157 154.701 390.593C153.775 393.004 152.424 395.148 150.646 397.023C148.867 398.875 146.675 400.36 144.069 401.481C141.463 402.577 138.479 403.125 135.118 403.125C132.268 403.125 129.576 402.65 127.043 401.7C124.51 400.75 122.293 399.398 120.393 397.645C118.493 395.866 116.995 393.723 115.899 391.214C114.803 388.681 114.255 385.843 114.255 382.701ZM136.031 400.531C137.882 400.531 139.587 400.166 141.146 399.435C142.705 398.704 144.045 397.657 145.165 396.293C146.31 394.929 147.187 393.272 147.796 391.324C148.429 389.351 148.746 387.134 148.746 384.674C148.746 381.873 148.441 379.279 147.832 376.892C147.248 374.505 146.346 372.447 145.128 370.717C143.935 368.963 142.437 367.599 140.635 366.625C138.832 365.626 136.725 365.127 134.314 365.127C132.463 365.127 130.757 365.48 129.199 366.187C127.64 366.893 126.288 367.916 125.143 369.256C124.023 370.595 123.146 372.24 122.512 374.188C121.879 376.137 121.562 378.353 121.562 380.838C121.562 383.615 121.867 386.209 122.476 388.62C123.109 391.007 124.023 393.09 125.216 394.868C126.434 396.622 127.944 398.01 129.747 399.033C131.549 400.032 133.644 400.531 136.031 400.531ZM199.458 398.046C199.458 398.363 199.422 398.631 199.349 398.85C199.3 399.069 199.166 399.252 198.947 399.398C197.217 400.616 195.196 401.59 192.882 402.321C190.592 403.028 187.901 403.381 184.807 403.381C181.324 403.381 178.145 402.881 175.271 401.883C172.421 400.884 169.973 399.496 167.927 397.718C165.881 395.915 164.286 393.759 163.141 391.251C162.021 388.742 161.46 385.965 161.46 382.92C161.46 380.314 161.972 377.781 162.995 375.321C164.042 372.861 165.54 370.681 167.489 368.781C169.437 366.881 171.8 365.358 174.577 364.214C177.378 363.069 180.532 362.496 184.04 362.496C185.867 362.496 187.596 362.606 189.228 362.825C190.86 363.02 192.431 363.337 193.941 363.775L196.681 370.352L196.316 370.608C194.855 368.927 193.089 367.599 191.018 366.625C188.948 365.626 186.573 365.127 183.894 365.127C181.702 365.127 179.68 365.48 177.829 366.187C176.002 366.893 174.406 367.928 173.042 369.292C171.703 370.632 170.655 372.288 169.9 374.261C169.145 376.234 168.768 378.475 168.768 380.984C168.768 383.809 169.121 386.428 169.827 388.839C170.534 391.251 171.593 393.345 173.006 395.124C174.419 396.877 176.16 398.253 178.231 399.252C180.325 400.251 182.761 400.75 185.538 400.75C187.925 400.75 189.776 400.446 191.091 399.837C192.431 399.228 193.101 398.534 193.101 397.754V395.818C193.101 394.551 193.089 393.455 193.064 392.529C193.04 391.604 193.003 390.812 192.955 390.155C192.906 389.473 192.833 388.888 192.736 388.401C192.662 387.914 192.565 387.463 192.443 387.049V386.903H200.225V387.049C200.104 387.414 199.994 387.853 199.897 388.364C199.799 388.876 199.714 389.485 199.641 390.191C199.592 390.897 199.543 391.726 199.495 392.676C199.47 393.626 199.458 394.722 199.458 395.964V398.046ZM232.049 390.118C231.391 390.118 230.563 390.118 229.564 390.118C228.59 390.118 227.518 390.118 226.349 390.118C225.18 390.118 223.974 390.118 222.732 390.118C221.49 390.118 220.308 390.13 219.188 390.155C218.067 390.155 217.044 390.167 216.119 390.191C215.193 390.191 214.475 390.191 213.963 390.191L212.611 393.041C212.027 394.21 211.527 395.233 211.113 396.11C210.699 396.963 210.358 397.718 210.09 398.375C209.822 399.033 209.628 399.605 209.506 400.092C209.384 400.555 209.323 400.994 209.323 401.408C209.323 401.676 209.335 401.883 209.36 402.029C209.384 402.151 209.421 402.248 209.469 402.321V402.467H203.039V402.321C203.209 402.151 203.477 401.785 203.843 401.225C204.208 400.641 204.622 399.934 205.085 399.106C205.572 398.278 206.084 397.34 206.619 396.293C207.18 395.245 207.728 394.161 208.264 393.041L223.17 362.277H225.911L240.525 393.041C241.085 394.21 241.646 395.331 242.206 396.402C242.79 397.474 243.326 398.436 243.814 399.289C244.301 400.117 244.727 400.811 245.092 401.371C245.458 401.907 245.701 402.224 245.823 402.321V402.467H236.47C236.518 402.272 236.543 402.102 236.543 401.956C236.543 401.785 236.543 401.603 236.543 401.408C236.543 400.872 236.421 400.226 236.177 399.471C235.958 398.716 235.678 397.949 235.337 397.17C235.02 396.366 234.679 395.598 234.314 394.868C233.973 394.137 233.693 393.528 233.474 393.041L232.049 390.118ZM215.388 387.268H217.617C218.64 387.268 219.724 387.268 220.869 387.268C222.038 387.244 223.207 387.232 224.376 387.232C225.545 387.232 226.678 387.232 227.774 387.232C228.87 387.207 229.857 387.195 230.733 387.195L223.17 371.046L215.388 387.268ZM254.007 350.074V350.22C253.958 350.342 253.922 350.525 253.898 350.768C253.873 351.012 253.861 351.231 253.861 351.426C253.861 352.181 253.958 353.021 254.153 353.947C254.373 354.848 254.774 355.981 255.359 357.345L271.545 393.845L287.182 357.637C287.548 356.736 287.937 355.749 288.351 354.678C288.766 353.606 288.973 352.522 288.973 351.426C288.973 351.134 288.948 350.89 288.9 350.695C288.851 350.476 288.802 350.318 288.753 350.22V350.074H296.243V350.22C295.781 350.683 295.22 351.511 294.563 352.705C293.905 353.898 293.186 355.372 292.407 357.126L271.472 403.6H268.549L248.709 358.916C248.247 357.868 247.759 356.858 247.248 355.883C246.761 354.909 246.298 354.032 245.86 353.253C245.421 352.449 245.031 351.779 244.69 351.243C244.349 350.707 244.118 350.366 243.996 350.22V350.074H254.007ZM299.934 378.207C299.934 376.015 299.909 374.115 299.86 372.507C299.812 370.875 299.739 369.475 299.641 368.306C299.568 367.112 299.459 366.114 299.312 365.31C299.191 364.506 299.044 363.848 298.874 363.337V363.191H307.35V363.337C307.18 363.848 307.022 364.506 306.875 365.31C306.754 366.114 306.644 367.112 306.547 368.306C306.474 369.475 306.413 370.875 306.364 372.507C306.315 374.115 306.291 376.015 306.291 378.207V387.414C306.291 389.607 306.315 391.519 306.364 393.151C306.413 394.783 306.474 396.195 306.547 397.389C306.644 398.558 306.754 399.544 306.875 400.348C307.022 401.152 307.18 401.81 307.35 402.321V402.467H298.874V402.321C299.044 401.81 299.191 401.152 299.312 400.348C299.459 399.544 299.568 398.558 299.641 397.389C299.739 396.195 299.812 394.783 299.86 393.151C299.909 391.519 299.934 389.607 299.934 387.414V378.207ZM335.301 370.827H334.57C334.424 370.413 334.18 369.889 333.839 369.256C333.523 368.622 333.084 368.001 332.524 367.392C331.988 366.783 331.318 366.272 330.515 365.858C329.711 365.419 328.749 365.2 327.628 365.2C326.776 365.2 326.008 365.346 325.326 365.639C324.669 365.907 324.108 366.284 323.646 366.771C323.183 367.258 322.83 367.843 322.586 368.525C322.343 369.183 322.221 369.901 322.221 370.681C322.221 371.947 322.598 373.153 323.353 374.298C324.133 375.443 325.095 376.587 326.24 377.732C327.385 378.853 328.627 379.985 329.967 381.13C331.306 382.275 332.548 383.468 333.693 384.711C334.838 385.953 335.788 387.268 336.543 388.657C337.323 390.045 337.712 391.531 337.712 393.114C337.712 394.283 337.493 395.489 337.055 396.731C336.641 397.973 335.958 399.094 335.009 400.092C334.059 401.091 332.841 401.907 331.355 402.54C329.869 403.198 328.067 403.527 325.948 403.527C324.778 403.527 323.658 403.429 322.586 403.235C321.539 403.04 320.564 402.796 319.663 402.504C318.786 402.236 317.995 401.944 317.288 401.627C316.606 401.286 316.034 400.969 315.571 400.677L316.229 393.772H316.996C317.24 394.624 317.593 395.477 318.056 396.329C318.543 397.182 319.127 397.961 319.809 398.668C320.516 399.35 321.332 399.91 322.257 400.348C323.207 400.762 324.291 400.969 325.509 400.969C326.362 400.969 327.165 400.835 327.92 400.567C328.676 400.275 329.321 399.873 329.857 399.362C330.417 398.85 330.856 398.229 331.172 397.498C331.489 396.743 331.647 395.903 331.647 394.977C331.647 393.881 331.428 392.87 330.99 391.945C330.551 390.995 329.967 390.094 329.236 389.241C328.505 388.364 327.677 387.524 326.751 386.72C325.85 385.916 324.912 385.1 323.938 384.272C322.964 383.444 322.014 382.604 321.088 381.751C320.187 380.874 319.371 379.937 318.64 378.938C317.909 377.939 317.325 376.88 316.886 375.759C316.448 374.614 316.229 373.36 316.229 371.996C316.229 370.559 316.533 369.268 317.142 368.123C317.751 366.978 318.555 366.016 319.554 365.237C320.552 364.433 321.697 363.824 322.988 363.41C324.279 362.971 325.619 362.752 327.007 362.752C328.03 362.752 328.98 362.825 329.857 362.971C330.758 363.118 331.562 363.3 332.268 363.519C332.999 363.714 333.632 363.921 334.168 364.141C334.704 364.335 335.143 364.494 335.484 364.616L335.301 370.827ZM346.7 378.207C346.7 376.015 346.676 374.115 346.627 372.507C346.578 370.875 346.505 369.475 346.408 368.306C346.335 367.112 346.225 366.114 346.079 365.31C345.957 364.506 345.811 363.848 345.641 363.337V363.191H354.117V363.337C353.947 363.848 353.788 364.506 353.642 365.31C353.52 366.114 353.411 367.112 353.313 368.306C353.24 369.475 353.179 370.875 353.131 372.507C353.082 374.115 353.058 376.015 353.058 378.207V387.414C353.058 389.607 353.082 391.519 353.131 393.151C353.179 394.783 353.24 396.195 353.313 397.389C353.411 398.558 353.52 399.544 353.642 400.348C353.788 401.152 353.947 401.81 354.117 402.321V402.467H345.641V402.321C345.811 401.81 345.957 401.152 346.079 400.348C346.225 399.544 346.335 398.558 346.408 397.389C346.505 396.195 346.578 394.783 346.627 393.151C346.676 391.519 346.7 389.607 346.7 387.414V378.207ZM362.192 382.701C362.192 379.827 362.728 377.16 363.799 374.7C364.895 372.24 366.381 370.108 368.257 368.306C370.132 366.479 372.349 365.054 374.906 364.031C377.464 363.008 380.204 362.496 383.127 362.496C386.001 362.496 388.705 362.984 391.238 363.958C393.796 364.908 396.012 366.272 397.888 368.05C399.788 369.828 401.286 371.984 402.382 374.517C403.478 377.05 404.026 379.888 404.026 383.03C404.026 385.636 403.563 388.157 402.638 390.593C401.712 393.004 400.36 395.148 398.582 397.023C396.804 398.875 394.612 400.36 392.005 401.481C389.399 402.577 386.415 403.125 383.054 403.125C380.204 403.125 377.513 402.65 374.979 401.7C372.446 400.75 370.23 399.398 368.33 397.645C366.43 395.866 364.932 393.723 363.836 391.214C362.74 388.681 362.192 385.843 362.192 382.701ZM383.967 400.531C385.819 400.531 387.524 400.166 389.083 399.435C390.641 398.704 391.981 397.657 393.102 396.293C394.246 394.929 395.123 393.272 395.732 391.324C396.365 389.351 396.682 387.134 396.682 384.674C396.682 381.873 396.378 379.279 395.769 376.892C395.184 374.505 394.283 372.447 393.065 370.717C391.871 368.963 390.373 367.599 388.571 366.625C386.769 365.626 384.662 365.127 382.25 365.127C380.399 365.127 378.694 365.48 377.135 366.187C375.576 366.893 374.224 367.916 373.08 369.256C371.959 370.595 371.082 372.24 370.449 374.188C369.816 376.137 369.499 378.353 369.499 380.838C369.499 383.615 369.803 386.209 370.412 388.62C371.046 391.007 371.959 393.09 373.153 394.868C374.37 396.622 375.881 398.01 377.683 399.033C379.486 400.032 381.58 400.531 383.967 400.531ZM446.591 402.979H445.166L416.12 374.407V387.414C416.12 389.607 416.132 391.519 416.156 393.151C416.18 394.783 416.217 396.195 416.266 397.389C416.339 398.558 416.424 399.544 416.521 400.348C416.643 401.152 416.789 401.81 416.96 402.321V402.467H411.479V402.321C411.65 401.81 411.796 401.152 411.918 400.348C412.04 399.544 412.137 398.558 412.21 397.389C412.283 396.195 412.332 394.783 412.356 393.151C412.381 391.519 412.393 389.607 412.393 387.414V378.207C412.393 376.015 412.381 374.115 412.356 372.507C412.332 370.875 412.283 369.475 412.21 368.306C412.137 367.112 412.04 366.114 411.918 365.31C411.796 364.506 411.65 363.848 411.479 363.337V363.191H413.745L442.828 391.908V378.207C442.828 376.015 442.816 374.115 442.791 372.507C442.767 370.875 442.718 369.475 442.645 368.306C442.596 367.112 442.523 366.114 442.426 365.31C442.328 364.506 442.194 363.848 442.024 363.337V363.191H447.468V363.337C447.297 363.848 447.151 364.506 447.029 365.31C446.932 366.114 446.847 367.112 446.774 368.306C446.701 369.475 446.652 370.875 446.627 372.507C446.603 374.115 446.591 376.015 446.591 378.207V402.979Z" fill="#433030"/>
</svg>
