
    <svg
      xmlns="http://www.w3.org/2000/svg"
      width="150"
      height="150"
      version="1.1"
      viewBox="0 0 2666.667 2666.667"
      xmlSpace="preserve"
    >
      <g transform="matrix(1.33333 0 0 -1.33333 0 2666.667)">
        <g
          fillOpacity="1"
          fillRule="nonzero"
          stroke="none"
          transform="scale(.1)"
        >
          <path
            fill="#fbc398"
            d="M8456.01 9531.4s-803.47-593.7-1262.09-1020.3c-458.61-426.6-821.24-725.3-906.56-1045.2-85.33-320 341.29-789.3 746.58-725.3s1066.55 202.7 1781.14 352c714.58 149.3 1034.55 138.6 1034.55 138.6v629.3H8804.41l519.05 362.6s56.89 1119.5-17.77 1146.4c-74.66 26.8-849.68 161.9-849.68 161.9"
          ></path>
          <path
            fill="#fbc398"
            d="M10390 8102.3l156.4-2318s-142.2-483.5-156.4-974.1c-14.2-490.6-35.5-1671-35.5-1671h405.2s362.7 1223 497.8 1671c135.1 447.9 120.8 853.2 149.3 1002.5 28.4 149.4 511.9 1749.2 533.3 2154.5 21.3 405.2-1080.8 519-1109.3 504.8-28.4-14.2-440.8-369.7-440.8-369.7"
          ></path>
          <path
            fill="#df9d71"
            d="M10745.5 8095.1s135.1-163.5 156.5-319.9c21.3-156.5-78.3-788.5-78.3-788.5s45.7-384.7 1.5-647.8c-44.1-263.1 5.6-391.1-79.7-419.5-85.3-28.5-101.6-14.8-177.7 120.9-76.2 135.6-167.6 1911.5-167.6 1911.5l-10.2 150.5 355.5-7.2"
          ></path>
          <path
            fill="#1e1c1b"
            d="M9479.89 10718.9l-298.63-248.9-191.98-462.2-533.27-476.4s78.21-298.6 277.3-618.6c199.09-319.9 590.15-689.7 590.15-689.7s554.61 355.5 767.94 384c213.3 28.4 291.5-156.4 298.6-177.8 7.1-21.3 0-327 0-327s512-163.6 846.1-184.9c334.2-21.3 704 49.8 704 49.8s149.3 974.1 156.4 1429.1c7.1 455.1-305.8 1109.2-305.8 1109.2l-1514.4 320-796.41-106.6"
          ></path>
          <path
            fill="#34231f"
            d="M9635.83 14730.8s-347.92-279-411.91-826.5c-63.99-547.5 658.92-369.8 658.92-369.8l393.46 952.8-640.47 243.5"
          ></path>
          <path
            fill="#fbc398"
            d="M9487 11629c-14.22-21.4-226.98-263.1-226.98-263.1s20.78-519.1-78.76-895.9c0 0 618.59-241.8 1500.24-220.4 881.7 21.3 1109.2 255.9 1109.2 255.9s-163.5 291.6-184.8 860.4c-21.3 568.8-1457.6 917.2-1514.5 881.7-56.9-35.6-604.4-618.6-604.4-618.6"
          ></path>
          <path
            fill="#fbc398"
            d="M8925.29 12517.8s-277.31 668.3-483.51 1023.9c-206.19 355.5-447.95 517.2-711.03 1293.1-263.08 776-419.5 1079.6-355.52 1276.2 64 196.6 2147.32 857.8 2147.32 857.8l72.2-334.2s-385.05-163.5-733.46-433.7c-348.4-270.2-711.03-526.1-711.03-526.1s277.3-504.9 369.74-732.4l92.43-227.5s440.84-398.2 711.03-796.4c270.2-398.2 234.65-1319.8 142.21-1342.5-92.43-22.7-540.38-58.2-540.38-58.2"
          ></path>
          <path
            fill="#fbc398"
            d="M11093.9 14046.5s248.9 421.3 547.5 722.6c0 0 177.8 415 348.4 727.9 170.7 312.8 241.8 476.4 234.7 504.8-7.1 28.5-625.7 270.2-1009.7 412.4s-654.1 234.7-654.1 234.7l127.9 319.9s917.3-113.7 1457.7-206.2c540.4-92.4 760.8-227.5 810.5-291.5 49.8-64-78.2-828.4-291.5-1395.4-213.3-567-504.8-972.3-519-1029.2-14.3-56.9-327.1-857.6-455.1-1470.5-128-612.8-981.2-29.8-974.1 354.2 7.1 383.9 376.8 1116.3 376.8 1116.3"
          ></path>
          <path
            fill="#df9d71"
            d="M9017.72 13278.6l85.32-533.3 120.88 120.9s-113.76 142.2-206.2 412.4"
          ></path>
          <path
            fill="#df9d71"
            d="M11534.8 13228.8l-199.1-483.5 99.5-113.8z"
          ></path>
          <path
            fill="#3970c0"
            d="M9594.75 13871.1l-157.52 47.4h-113.77s-28.44-533.3-149.31-874.6c-120.88-341.3-248.86-526.1-248.86-526.1s29.53-540.4 334.73-895.9v-256s532.72 49.8 1321.98 35.5c789.2-14.2 1023.9-35.5 1023.9-35.5v305.7s120.8 521.8 85.3 904.4c0 0-184.9 162.2-362.6 659.9-177.8 497.7-234.7 810.6-234.7 810.6l-125.6-9.5s-675.8-189.6-730.1-189.6c-54.4 0-643.45 23.7-643.45 23.7"
          ></path>
          <path
            fill="#fbc398"
            d="M9751.41 14286.9v-156.4l-314.18-212s-66.37-668.4 255.97-1076c322.3-407.7 1028.6-308.1 1246.7 33.2 218 341.2 28.4 1161.3 28.4 1161.3s-297.4 80.6-333.5 175.4c-36.2 94.8-97.8 497.7-97.8 497.7l-472.1 41.6-313.49-464.8"
          ></path>
          <path
            fill="#3970c0"
            d="M9595.18 14834.8s-7.18-126.2 37.18-236.4 182.57-181.8 187.64-165.3c5.07 16.4 78.78 277.6 59.68 302.2-19.09 24.5-284.5 99.5-284.5 99.5"
          ></path>
          <path
            fill="#df9d71"
            d="M10576.1 14761.9c-99.3 7.1-299.3 15.4-511.2-10.2-299.89-36.3-327.47-175.1-327.47-175.1l11.96-230.7c-2.18-9.4.31-63.7 2.02-59 17.09-17.5 258.99-217.8 482.99-137.5 233.2 83.5 400.4 425.5 400.4 425.5l-58.7 187"
          ></path>
          <path
            fill="#34231f"
            d="M9462.9 15258.2s-77.11 270.3-71.99 577.7c5.12 307.4 317.96 508.4 327.21 512.2 9.24 3.8 203.76 174.8 572.18 107.2 368.5-67.6 511.4-460.2 532.5-588.6 21.1-128.4 19.2-581.2 19.2-581.2s-148.9-142.7-249.5-152.5c-100.7-9.7-515.7-52.8-667.38-56.5-151.7-3.6-361.17 4.8-368.51 20.1-7.34 15.3-93.71 161.6-93.71 161.6"
          ></path>
          <path
            fill="#fbc398"
            d="M9460.57 15293.7s-53.25 15.5-64.64-28c-11.38-43.5 21.17-105.4 29.32-157.1 8.15-51.7 24.75-159.8 60.95-205 36.2-45.1 108.98-68.8 108.98-68.8s57.99-160 108.97-249.2c50.97-89.2 282.11-283 338.45-310.1 56.4-27.2 257.1-9.3 328.6 21.6 71.6 30.8 230.6 212.2 294.2 327.9 63.6 115.8 87.8 290.7 87.8 290.7s88.6 60.4 111 116.5c22.4 56.1 7.3 178.5 11.2 190.6 4 12.2 26.2 143.1.9 168.1-25.4 25-70.7-44.5-74.2-63.7-3.5-19.2-21-41.7-21-41.7s-37.8 142.3-39.7 206.3c-1.8 64-46 158.4-72.2 232.7-26.3 74.2-79.2 229.8-221 327.3-141.7 97.5-409 46.7-475.05 40-66.04-6.7-131.45-22.9-147.37-33.4-15.93-10.5-103.65-120.8-184.55-190.2-80.91-69.4-64.08-108.7-68.88-180.2-4.8-71.5-25.82-148.9-30.77-218.1-4.95-69.1-15.01-205.1-18.5-224.3-3.49-19.3-12.47-27-12.47-27l-50.04 75.1"
          ></path>
          <path
            fill="#fbc398"
            d="M9522.55 16968.8s98.58 40.3 113.28 120.9c14.71 80.6 299.12 664.8 348.89 821.2 49.78 156.5 49.78 433.8 92.48 448 42.6 14.2 71.1-64 71.1-64s10.6 60.3 56.8 65.7c46.3 5.4 39.1-140.4 39.1-140.4l24.9-138.6 39.1-138.7s10.7-145.7 110.3-415.9c99.5-270.2 110.2-458.6 270.1-558.2 160-99.5 124.5-223.9 60.5-248.8-64-24.9-188.4-71.1-188.4-71.1s-220.5-7.1-355.6 120.8c-135.1 128-138.6 316.4-138.6 316.4s-64-266.6-156.44-348.4c-92.43-81.7-315.31-103.1-315.31-103.1s-171.74 24.9-168.19 92.5c3.56 67.5 95.99 241.7 95.99 241.7"
          ></path>
          <path
            fill="#df9866"
            d="M10080.7 18234.5c-18.2-7.7-34-26.3-47.5-49.4-7.9-62.3-16.3-132.5-28.9-195.6l76.4 245"
          ></path>
          <path
            fill="#df9866"
            d="M10158.9 17406.1l17.8-142.2c17.8-142.2 92.4-295.1 92.4-295.1s-7.1 21.4-28.4 224c-21.3 202.6-39.1 792.8-28.4 831.9 10.6 39.1 56.8 56.9 56.8 56.9-32 35.5-81.7 21.3-81.7 21.3l-21.4 233.4-17.7-41.4-14.3-216.9s32-28.4 32-56.8c0-28.5-14.2-241.8-28.4-320-14.2-78.2-60.4-586.6-60.4-586.6s-3.4-25.8-7.9-61.3c4.3-33.4 14.9-88.7 41.2-147.6-11.8 226.8 48.4 500.4 48.4 500.4"
          ></path>
          <path
            fill="#df9866"
            d="M10166 18021.2s-27.7-2.4-51.2-45.1c-23.4-42.6-144.3-355.1-144.3-355.1s71.1 303.7 110.2 368.5c39.1 64.8 88.5 86.2 88.5 86.2l-3.2-54.5"
          ></path>
          <path
            fill="#df9d71"
            d="M7780.52 7423.2s479.95 202.7 1023.89 437.3h376.85s-312.86-149.3-579.49-218.6c-266.64-69.4-821.25-218.7-821.25-218.7"
          ></path>
          <path
            fill="#fbc398"
            d="M10354.5 3139.2s-40.3-237-68.8-379.2c-28.4-142.2-42.6-331.8-18.9-388.7 23.7-56.8 66.3-113.7 87.7-156.4 21.3-42.7 7.1-279.7 87.7-369.7 80.5-90.1 170.6-137.5 213.3-184.9 42.6-47.4 213.3 0 213.3 0s80.6 0 94.8 52.1c0 0 80.6 9.5 99.5 56.9 0 0 69.1 4.8 84.3 75.9 0 0 72.2 52.1 57.9 123.2-14.2 71.1-393.4 493-431.3 635.2-38 142.2-14.3 535.6-14.3 535.6l-165.9 227.6-239.3-227.6"
          ></path>
          <path
            fill="#df9d71"
            d="M10899.6 1854.6l64-142.2s47.3 5.7 78 29.7c-67.4 50-142 112.5-142 112.5"
          ></path>
          <path
            fill="#df9d71"
            d="M11147.4 1845.2s39.9 28.8 54.5 72.9c-53.3 18.1-100.9 55.1-100.9 55.1l46.4-128"
          ></path>
          <path
            fill="#df9d71"
            d="M11044.2 1911.5l18.9-142.2s42.1 3.1 67.8 38.3c-44.9 41.4-86.7 103.9-86.7 103.9"
          ></path>
          <path
            fill="#df9d71"
            d="M10769.2 1854.6c66.4-80.5 99.6-194.3 99.6-194.3s30 .1 56.7 11.9c-55.8 76.2-156.3 182.4-156.3 182.4"
          ></path>
          <path
            fill="#fbc398"
            d="M9849.63 7231.2s227.57-46.2 327.07-131.5c99.6-85.3 263.1-568.8 277.3-703.9 14.2-135.1 42.7-312.9 113.8-355.5 71.1-42.7 120.8-14.3 120.8 106.6 0 120.9 78.3 341.3 78.3 533.3 0 192-64 199.1 0 551 63.9 352 42.6 571.5-135.1 682.2-177.8 110.6-426.7-52.9-782.17-52.9-355.52 0-348.41-362.6-284.42-398.2 64-35.5 284.42-231.1 284.42-231.1"
          ></path>
        </g>
      </g>
    </svg>
