
    <svg
      xmlns="http://www.w3.org/2000/svg"
      width="150"
      height="150"
      version="1.1"
      viewBox="0 0 2666.667 2666.667"
      xmlSpace="preserve"
    >
      <g transform="matrix(1.33333 0 0 -1.33333 0 2666.667)">
        <g
          fillOpacity="1"
          fillRule="nonzero"
          stroke="none"
          transform="scale(.1)"
        >
          <path
            fill="#fbc398"
            d="M9481.54 8922.6l-1092.7-110.1-1804.23-1742.1s-779.29-293.6-1389.18-813.2c-609.87-519.5-1592.46-1242.3-1592.46-1242.3l316.23-327.6s496.94 338.9 1287.53 609.9c790.58 271.1 1513.41 801.9 1513.41 801.9s508.23 90.4 960 440.5l1699.76 883.7 208.94 1036.3-107.3 463"
          ></path>
          <path
            fill="#fbc398"
            d="M10904.6 7702.9s1067.3-293.7 1970.8-350.1c903.5-56.5 1185.9-214.6 1185.9-214.6s-101.6-576 0-1106.9c101.6-530.8 225.9-1648.9 225.9-1648.9h587.3s11.3 869.7 124.2 1513.4c113 643.8 90.4 1389.2 90.4 1389.2s124.2 519.5-135.6 801.9c-259.7 282.3-2450.8 869.6-3303.5 971.3-852.7 101.6-745.4-1355.3-745.4-1355.3"
          ></path>
          <path
            fill="#302f2f"
            d="M9515.42 10057.7c-50.82-16.9-533.64-135.5-533.64-135.5s-101.64-186.4-194.82-449c-93.18-262.6-107.3-423.5-107.3-423.5l-290.82-237.2s256.94-152.5 556.23-567.5c299.3-415.1 434.83-821.7 434.83-821.7s567.53 262.6 677.6 288c110.2 25.5 415.1 25.5 415.1 25.5l432-33.9s8.5 381.1 313.4 796.2 432 559.1 432 559.1l-245.6 736.9s-914.9 474.3-965.7 482.8c-50.8 8.5-923.28-220.2-923.28-220.2"
          ></path>
          <path
            fill="#e4a376"
            d="M17856.1 13432.7c15.1-3.7 165.7 7.6 195.8-22.5 30.1-30.2-3.6-86.3-244.7-102-241.1-15.8 48.9 124.5 48.9 124.5"
          ></path>
          <path
            fill="#e4a376"
            d="M2036.86 13639.8c-30.12 41.4-225.89 65.4-203.3 134.3 22.59 69 835.87-6.2 835.87-6.2l-632.57-128.1"
          ></path>
          <path
            fill="#fbc398"
            d="M9159.66 11379.1l-214.59-192s155.3-612.7 146.83-875.3c-8.47-262.6-110.12-389.6-110.12-389.6s652.23-355.8 1397.62-372.7c745.4-17 1025 245.6 1025 245.6s-163.8 573.2-65 1408.9c98.8 835.8-2179.74 175.1-2179.74 175.1"
          ></path>
          <path
            fill="#372a23"
            d="M9136.72 16075.9s-436.22 21.5-491.41-547.9 183.65-1075.9 200.12-1363.3c16.46-287.4 17.89-607.2 17.89-607.2s663.86 267.4 709.2 356.7c45.35 89.3 196.65 925.2 196.65 925.2s57.41 494.1-134.06 750.2c-191.48 256.1-498.39 486.3-498.39 486.3"
          ></path>
          <path
            fill="#fbc398"
            d="M8679.66 12293.9s-155.29 432-494.11 626.8c0 0-1414.59 93.2-2287.06 186.4 0 0-770.82 93.2-1219.76 169.4-448.94 76.2-1168.94 220.2-1168.94 220.2v245.7s1423.06 93.2 1855.06 76.2c432-16.9 584.47-59.3 677.65-67.7 93.17-8.5 1312.93 0 1312.93 0s550.59 129.8 940.23 124.2c389.65-5.7 576.01-48 576.01-48l372.5-847.1v-389.6l-564.51-296.5"
          ></path>
          <path
            fill="#fbc398"
            d="M11395.1 12550.7s339.6 361.6 475.1 387c135.6 25.4 1609.5 59.3 2134.6 169.4 0 0 677.7-8.5 1101.2 50.8s1143.5 76.3 1143.5 76.3v254.1s-889.4 144-1253.6 194.8c-364.2 50.8-940.2 42.3-940.2 42.3s-1584 59.3-1609.5 59.3c-25.4 0-609.8 265.5-1327 90.4s-690.1-1521.9-571-1513.4c119.2 8.5 846.9 189 846.9 189"
          ></path>
          <path
            fill="#e4a376"
            d="M8679.66 13084.6s191.49-369.4 183.53-533.9c-7.96-164.6-91.64-208.5-91.64-208.5s54.94 338.7-91.89 742.4"
          ></path>
          <path
            fill="#e4a376"
            d="M11260.4 12895.3s127 254.1 304.9 355.8c0 0-118.6-203.3-152.5-508.2-33.8-305-152.4 152.4-152.4 152.4"
          ></path>
          <path
            fill="#3970c0"
            d="M9540.84 13547.6c-25.42 8.4-559.06 279.5-559.06 279.5h-110.11s39.52-590.1 0-962.8c-39.54-372.7-192.01-570.4-192.01-570.4s101.65-468.7 163.77-756.7c62.12-288 101.64-350.1 101.64-350.1s316.24-90.3 880.95-39.5c564.68 50.8 1349.68 11.3 1513.38 56.4l33.9 293.7s242.8 299.3 248.5 672c5.6 372.7-231.6 773.6-254.1 841.4-22.6 67.8-248.5 864-248.5 864l-112.9-22.6s-559.1-146.8-604.3-152.5c-45.2-5.6-861.16-152.4-861.16-152.4"
          ></path>
          <path
            fill="#fbc398"
            d="M9573.76 14794.9s34.84-315.6-193.86-620.5c-228.71-305-398.12-347.3-398.12-347.3s37.27-626.8 319.34-999.5c282.07-372.7 1306.58-330.4 1607.48-101.7 300.9 228.7 97.6 1126.6 97.6 1126.6s-356.9 144-458 254.1c-101 110.1-109.9 348.9-109.9 348.9l-395.9 1191.4s-433.8-57.9-450.74-91.8c-16.94-33.9-17.9-760.2-17.9-760.2"
          ></path>
          <path
            fill="#fbc398"
            d="M3602.97 5014.9s-214.59-163.8-372.71-327.6c-158.11-163.7-372.7-670.1-372.7-730.3 0-60.2 82.82-48.9 82.82-48.9s41.41-82.9 131.77-64c0 0 60.23-64 124.23-33.9 0 0 86.59-60.3 139.29-26.4 0 0 94.12-94.1 210.83-48.9 116.7 45.2 52.7 146.8 75.29 346.3 22.59 199.6 71.53 380.3 101.65 433 30.11 52.7 195.76 173.1 195.76 173.1s18.83 154.4 0 180.8c-18.82 26.3-316.23 146.8-316.23 146.8"
          ></path>
          <path
            fill="#fbc398"
            d="M14287.2 4382.4s-17-242.8-79.1-412.2c-62.1-169.4-175-474.4 271.1-434.8 446.1 39.5 451.7 152.4 711.5 62.1 259.8-90.4 496.9-214.6 785-146.9 0 0 355.7-96 367 56.5 11.3 152.5-22.6 101.7-276.7 163.8-254.1 62.1-807.5 446.1-858.4 485.6-50.8 39.6-350.1 338.9-361.4 355.8-11.3 16.9-276.7 158.1-310.5 141.2-33.9-17-248.5-271.1-248.5-271.1"
          ></path>
          <path
            fill="#fbc398"
            d="M3509.79 13742.4s-317.17 32.9-614.58 25.4c-297.42-7.5-963.77 32-990.12-25.4-26.35-57.4 41.41-83.8 131.77-102.6 90.35-18.8 350.11-41.4 350.11-41.4s-7.53-49 143.06-49 237.18 0 395.29-94.1c158.12-94.1 584.47 41.4 584.47 41.4s119.53 82.3 108.24 101.4c-11.3 19.1-108.24 144.3-108.24 144.3"
          ></path>
          <path
            fill="#e4a376"
            d="M2850.03 13688.7s-312.47 3.8-376.47-15-86.59-75.3-86.59-75.3l-79.07 7.4s26.37 86.7 128.01 113.1c101.65 26.3 414.12-30.2 414.12-30.2"
          ></path>
          <path
            fill="#fbc398"
            d="M16249.5 13234.2s108.3-4.8 225-65 425.4-67.8 527 0c101.7 67.8 229.7 28.2 286.1 8.5 56.5-19.8 146.9-54.2 180.7-29.5 33.9 24.8-45.1 137.7-45.1 137.7s399 11.3 466.8 52.7c67.8 41.4 101.6 82.8 64 116.7-37.7 33.9-993.9 45.2-1268.7 37.7-274.8-7.6-435.8-4.7-435.8-4.7s-113.9-112-110.1-123.3c3.8-11.3 110.1-130.8 110.1-130.8"
          ></path>
          <path
            fill="#e4a376"
            d="M16809.5 13447.8s448-71.5 515.8-90.4c67.8-18.8 97.9-71.5 97.9-71.5l142.9 6.5s-112.8 83.9-169.3 102.7c-56.4 18.8-587.3 52.7-587.3 52.7"
          ></path>
          <path
            fill="#3970c0"
            d="M9267.19 16169.3l-130.47-93.4s-115.32-247.4 8.04-461.8c123.36-214.5 122.43 555.2 122.43 555.2"
          ></path>
          <path
            fill="#e4a376"
            d="M10032.7 15035.8s57.2-303.4 132.5-434.7 281.8-230.4 281.8-230.4l126 543.3-302.9 244-237.4-122.2"
          ></path>
          <path
            fill="#523d38"
            d="M10779.3 16071.9c18.6 9.5 102 122.4 102 122.4s114.9 309.5-432.8 371.2c-547.72 61.7-939.57-90.7-1167.05-340.2-227.47-249.4-139.76-986.3 8.33-1209.8 148.11-223.5 283.98-220.6 283.98-220.6l391.8 350s548.74 16.2 567.14 60c18.4 43.8 115.9 368.8 121.8 418.7 5.9 49.9 124.8 448.3 124.8 448.3"
          ></path>
          <path
            fill="#372a23"
            d="M9573.51 14794.9c-6.53 0-139.32 2.7-283.73 220.6-11.99 18.1-23.59 39.6-34.65 63.9 11.06-24.3 22.66-45.8 34.65-63.9 144.42-217.9 277.2-220.6 283.73-220.6m-318.5 284.7c-.07.2-.12.3-.19.4.06-.1.13-.2.19-.4"
          ></path>
          <path
            fill="#42322c"
            d="M9573.51 14794.9c-6.53 0-139.31 2.7-283.73 220.6-11.99 18.1-23.59 39.6-34.65 63.9-.04 0-.09.2-.12.2-.06.2-.13.3-.19.4-79.31 174.8-131.14 495.3-105.61 765.1 50.52-61.7 346.76-401.3 840.02-514.9 269.17-62.1 376.47-124.5 449.17-152.8-160.1-23.1-467.6-32.4-472.77-32.5h-.07l-391.8-350h-.25"
          ></path>
          <path
            fill="#372a23"
            d="M10573 16145.4s-201.7 72.7-407.3 48.3c0 0 215.6-68.4 263-152.2 47.3-83.9-87.9-136.3-87.9-136.3s-351.25 58.4-640.82-4.4c0 0 454.52-113.2 581.92-278.7 127.4-165.4 282.5 191.1 273.8 205.1-8.7 13.9 17.3 318.2 17.3 318.2"
          ></path>
          <path
            fill="#fbc398"
            d="M10138.7 15361.2s-39 233.6-188.28 170.2c-149.23-63.3-28.04-455.4 53.38-498.5l81.3-43.1s246.8-384.1 353.4-470.7c106.6-86.6 524.9-59.6 580.9-35.8 56 23.7 52.5 529.2 52.5 529.2s163.1 85 167.7 103.7c4.5 18.8-175 270.1-189.2 298.1-14.2 28-2.4 346.1-21.7 444.2-19.4 98.1-128.5 317.2-147.4 335.8-18.8 18.5-261.7-29.9-308.3-48.9-46.7-19.1-195.9-85.6-237.6-146.7-41.6-61.1-35-346.3-71.6-472.9-36.5-126.5-59.7-159.4-125.1-164.6"
          ></path>
          <path
            fill="#372a23"
            d="M10496.7 16110.8s-13.3-193-195-279.5-9.9-113.6-9.9-113.6 144 76.2 206.4 172.2c62.5 95.9 74.8 255.5 74.8 255.5l-76.3-34.6"
          ></path>
        </g>
      </g>
    </svg>
